<?xml version="1.0" encoding="UTF-8"?>
<!DOCTYPE svg PUBLIC "-//W3C//DTD SVG 1.1//EN" "http://www.w3.org/Graphics/SVG/1.1/DTD/svg11.dtd">
<!-- Creator: CorelDRAW (Versão de avaliação) -->
<svg xmlns="http://www.w3.org/2000/svg" xml:space="preserve" width="329.708mm" height="24.3278mm" version="1.1" shape-rendering="geometricPrecision" text-rendering="geometricPrecision" image-rendering="optimizeQuality" fill-rule="evenodd" clip-rule="evenodd"
viewBox="0 0 33387.48 2463.53"
 xmlns:xlink="http://www.w3.org/1999/xlink"
 xmlns:xodm="http://www.corel.com/coreldraw/odm/2003">
 <g id="Camada_x0020_1">
  <metadata id="CorelCorpID_0Corel-Layer"/>
  <path fill="#6D8A91" d="M16971.98 1697.43c0,0 12,8.76 35.47,25.8 23.36,17.21 58.51,42.27 104.85,74.77 92.99,64.3 230.95,158.75 418.72,262.5 93.99,51.47 200.41,105.39 320.66,155.12 60.13,24.96 123.66,48.72 190.51,71.02 67.06,21.61 137.28,42.23 211.02,59.37 73.74,16.91 150.71,31.29 230.74,41.94 80.07,10.18 163.11,16.35 248.63,18.18 21.44,0.1 42.94,1 64.66,0.54 21.7,-0.48 43.51,-0.86 65.52,-1.29 21.95,-1.14 44.05,-2.32 66.31,-3.46 22.3,-0.89 44.62,-3.53 67.12,-5.22 89.95,-8.26 181.8,-21.33 275.04,-39.54 92.86,-18.35 186.51,-43.37 279.29,-76.41 92.93,-32.8 184.44,-75.06 272.07,-127.08 43.41,-26.57 86.35,-54.91 126.93,-86.87 40.58,-31.98 79.62,-66.55 116.13,-104.1 72.07,-75.78 135.26,-162.72 179.8,-260.71 44.76,-97.65 73.3,-204.62 80.98,-315.62 1.56,-13.8 1.33,-27.79 2.11,-41.72 0.88,-13.91 0.54,-27.94 0.39,-41.94l-0.16 -21.08c-0.22,-7.03 -0.87,-13.96 -1.3,-20.92 -0.93,-13.98 -1.86,-27.94 -2.79,-41.98 -6.24,-55.78 -17.17,-111.14 -33.4,-165.39 -17.16,-53.94 -39.8,-106.46 -67.52,-156.8 -27.41,-50.49 -61.48,-97.81 -99.17,-142.61 -37.9,-44.67 -79.84,-86.66 -125.71,-125.17 -45.9,-38.41 -95.13,-73.73 -146.89,-106.02 -103.37,-64.89 -217.52,-116.39 -336.73,-156.5 -119.34,-39.81 -244.46,-68.06 -371.56,-79.35 -128.35,-11.51 -258.96,-9.89 -389.57,4.83 -130.52,15.71 -260.93,44.36 -389.49,84.44 -257.38,80.84 -506.38,205.34 -751.66,346.48 -245.74,140.89 -489.05,298.4 -743.87,447.59 -63.51,36.72 -126.82,73.3 -189.94,109.85 -62.69,36.42 -125,73.52 -187.2,110.49 -124.28,73.93 -248.03,147.97 -371.99,219.99 -247.95,143.95 -497.09,280.36 -752.3,395.68 -127.56,57.57 -256.64,109.85 -387.57,154.29 -130.81,44.46 -263.64,80.95 -397.93,105.74 -134.21,24.85 -270,38.09 -404.85,35.33 -16.86,-0.44 -33.69,-0.57 -50.48,-1.29 -16.78,-1.3 -33.58,-2.53 -50.3,-3.82l-25.11 -1.98 -12.54 -0.96 -12.47 -1.63c-16.62,-2.27 -33.22,-4.54 -49.77,-6.78l-24.85 -3.44c-8.29,-1.06 -16.33,-3.09 -24.52,-4.6 -16.29,-3.29 -32.58,-6.53 -48.84,-9.75 -32.61,-5.66 -64.47,-15.32 -96.45,-23.72 -32.1,-7.65 -63.12,-19.73 -94.34,-30.19l-23.36 -8.12c-7.69,-3 -15.22,-6.38 -22.84,-9.56 -15.17,-6.52 -30.33,-13.01 -45.44,-19.47 -15.29,-6.06 -29.76,-14.15 -44.37,-21.68 -14.6,-7.63 -29.14,-15.19 -43.69,-22.79 -14.25,-8.16 -28.01,-17.3 -41.94,-25.86l-20.82 -13.08 -10.39 -6.55c-3.4,-2.27 -6.62,-4.84 -9.94,-7.27 -13.13,-9.78 -26.26,-19.6 -39.36,-29.37 -6.43,-5.03 -13.3,-9.5 -19.33,-15l-18.39 -16.2c-12.18,-10.85 -24.37,-21.67 -36.52,-32.46 -11.29,-11.83 -22.51,-23.54 -33.72,-35.29l-16.75 -17.63c-5.33,-6.1 -10.3,-12.49 -15.44,-18.77 -10.1,-12.62 -20.22,-25.18 -30.36,-37.76 -9.47,-13.01 -18.19,-26.58 -27.26,-39.8l-13.47 -19.98c-4.43,-6.65 -8,-13.81 -12.04,-20.75 -7.85,-13.89 -15.69,-27.83 -23.47,-41.72 -7.18,-14.19 -13.5,-28.76 -20.21,-43.12l-9.93 -21.55c-3.21,-7.22 -5.65,-14.74 -8.51,-22.08 -5.43,-14.84 -10.9,-29.54 -16.32,-44.26 -4.75,-14.95 -8.79,-30.03 -13.18,-45.01l-6.39 -22.44c-2.01,-7.49 -3.32,-15.17 -5.04,-22.74 -3.14,-15.16 -6.32,-30.3 -9.5,-45.41 -2.5,-15.18 -4.35,-30.47 -6.54,-45.65l-3.13 -22.76c-0.97,-7.62 -1.23,-15.21 -1.86,-22.78 -1.07,-15.23 -2.12,-30.41 -3.18,-45.55 -0.68,-15.16 -0.36,-30.26 -0.61,-45.34 -0.03,-15.12 -0.47,-30.15 0.75,-45.12 0.86,-14.97 1.71,-29.89 2.53,-44.83 0.76,-14.91 3.18,-29.62 4.68,-44.36l2.62 -22.09 1.32 -11.05 1.89 -10.94c2.6,-14.53 5.17,-29.02 7.75,-43.46 45.7,-230.43 153.79,-439.58 308.86,-594.68 77.06,-75.29 158.79,-141.62 243.85,-199.49 21.62,-13.93 42.54,-28.65 64.33,-41.72 21.97,-12.8 43.8,-25.54 65.52,-38.19 44.44,-23.36 88.34,-46.65 133.57,-65.73 89.86,-39.24 180.37,-71.34 271,-92.92 22.4,-6.44 45.19,-10.5 67.66,-15.29 22.51,-4.56 44.73,-9.72 67.23,-12.61 22.37,-3.38 44.62,-6.75 66.66,-10.12 22.23,-2.15 44.29,-4.31 66.2,-6.5 21.83,-2.61 43.69,-3.21 65.34,-4.24 10.83,-0.45 21.61,-0.93 32.33,-1.44 10.75,-0.58 21.43,-0.99 32.11,-0.71 21.34,0.13 42.51,0.28 63.52,0.39l15.72 0.16 15.65 0.92c10.4,0.63 20.76,1.24 31.08,1.84 10.33,0.59 20.58,1.22 30.83,1.78l15.33 1 15.18 1.66c20.18,2.2 40.22,4.45 60.12,6.59 19.94,1.73 39.4,5.78 58.83,8.68 19.37,3.28 38.68,5.89 57.59,9.68 151.68,29.65 288.64,74.77 409.71,126.75 121.14,51.96 226.45,110.63 317.83,168.19 181.27,117.81 306.66,229.95 388,308.54 41.4,38.75 70.48,70.73 90.59,91.66 20.01,20.99 30.26,31.73 30.26,31.73 0,0 -10.61,-10.4 -31.33,-30.68 -20.82,-20.2 -50.94,-51.16 -93.45,-88.45 -83.69,-75.75 -212.2,-183.41 -395.18,-294.79 -92.2,-54.38 -197.98,-109.31 -318.73,-157.19 -120.6,-47.84 -256.28,-88.48 -405.21,-113.63 -18.57,-3.19 -37.51,-5.23 -56.52,-7.97 -19.04,-2.34 -38.12,-5.82 -57.59,-7.01 -19.42,-1.62 -39.01,-3.25 -58.76,-4.92l-14.81 -1.26 -14.95 -0.59c-9.96,-0.34 -20,-0.66 -30.04,-0.98 -10.07,-0.36 -20.14,-0.68 -30.26,-1.03l-15.21 -0.52 -15.29 0.26c-20.39,0.3 -40.98,0.68 -61.7,1.07 -10.35,-0.05 -20.72,0.64 -31.15,1.46 -10.39,0.7 -20.83,1.47 -31.33,2.19 -20.92,1.45 -42.09,2.6 -63.19,5.64 -21.11,2.56 -42.41,5.17 -63.85,7.79 -21.25,3.74 -42.68,7.5 -64.22,11.32 -21.65,3.29 -42.98,8.79 -64.6,13.68 -21.57,5.09 -43.44,9.51 -64.87,16.26 -86.84,22.73 -173.19,55.65 -258.54,95.2 -171.08,78.51 -334.44,194.48 -478.23,339.98 -16.82,18.64 -34.76,36.4 -50.13,56.66 -7.96,9.93 -16.14,19.69 -23.93,29.76 -7.39,10.41 -14.79,20.86 -22.26,31.32l-11.15 15.75c-3.53,5.36 -6.86,10.91 -10.32,16.41 -6.78,10.91 -13.65,21.93 -20.51,32.9 -6.71,11.13 -12.58,22.78 -18.94,34.22 -6.03,11.53 -12.93,22.65 -18.22,34.72 -11.03,23.79 -23.04,47.26 -32.33,72.13 -4.89,12.28 -10.11,24.51 -14.78,36.97 -4.28,12.57 -8.58,25.18 -12.86,37.83l-6.5 19.01 -5.4 19.35c-3.6,12.9 -7.25,25.83 -10.86,38.83 -3.32,13 -5.86,26.3 -8.86,39.44 -2.75,13.2 -6.22,26.37 -7.97,39.84 -2.11,13.34 -4.28,26.78 -6.43,40.22l-1.6 10.1 -1 10.19 -2.01 20.33c-1.14,13.6 -3.22,27.19 -3.65,40.87 -0.54,13.63 -1.07,27.36 -1.61,41.11 -0.92,13.7 -0.24,27.44 0.04,41.22 0.44,13.75 0.32,27.58 1.17,41.34 1.22,13.71 2.43,27.5 3.62,41.3 0.72,6.88 0.96,13.82 1.99,20.69l3.22 20.5c2.22,13.72 4.07,27.51 6.53,41.16 3.08,13.49 6.19,27.08 9.26,40.69 1.65,6.78 2.9,13.64 4.79,20.32l6.12 20c4.13,13.32 7.92,26.79 12.35,40.05 5.07,13 10.14,26.08 15.21,39.16 2.61,6.45 4.83,13.14 7.79,19.5l9.15 18.96c6.18,12.59 11.89,25.48 18.46,37.91 7.08,12.14 14.19,24.32 21.3,36.51 3.65,6.03 6.86,12.36 10.86,18.19l12.19 17.36c8.18,11.53 16,23.37 24.5,34.76 9.08,10.89 18.19,21.83 27.3,32.8 4.57,5.42 8.93,11.07 13.71,16.39l15.09 15.25c9.99,10.21 20.03,20.48 30.07,30.69 10.91,9.36 21.83,18.75 32.76,28.18l16.4 14.15c5.4,4.82 11.65,8.65 17.4,13.04 11.75,8.5 23.5,17.03 35.29,25.57 2.98,2.14 5.82,4.36 8.9,6.4l9.37 5.66 18.78 11.4c12.61,7.51 24.86,15.55 37.75,22.62 13.19,6.67 26.44,13.33 39.65,19.97 13.27,6.63 26.23,13.83 40.26,19.01 13.79,5.71 27.61,11.43 41.44,17.14 6.94,2.77 13.75,5.82 20.79,8.48l21.48 7.02c28.79,9.18 57.01,19.99 86.87,26.59 29.62,7.35 58.91,16.04 89.42,20.79 15.16,2.9 30.33,5.75 45.48,8.62 7.62,1.28 15.15,3.14 22.82,4l22.98 2.82c15.29,1.91 30.64,3.9 46,5.79l11.51 1.39 11.65 0.74 23.26 1.55c15.53,0.98 31.07,2.04 46.64,3.08 15.61,0.42 31.3,0.35 46.98,0.57 125.47,1.19 252.93,-12.39 380.03,-37.22 127.18,-24.76 254.1,-60.73 379.92,-104.67 125.89,-43.91 250.85,-95.56 374.95,-152.61 248.32,-114.14 493.02,-249.64 738.52,-393.39 122.82,-71.89 245.89,-145.93 370.34,-220.34 62.32,-37.12 124.82,-74.42 188.13,-111.35 63.02,-36.5 126.28,-73.13 189.73,-109.82 251.5,-147.19 495.38,-304.43 745.84,-446.97 249.93,-142.62 508.16,-270.68 779.81,-354.06 135.71,-41.32 274.43,-70.8 413.6,-86.35 139.33,-14.62 278.93,-15.04 415.47,-1.46 137.91,13.64 271.03,45.37 398.07,89.2 126.86,44.32 248.32,100.81 359.46,172.36 55.62,35.71 108.71,74.84 158.51,117.61 49.73,42.89 95.55,89.94 137.03,140.28 41.35,50.41 78.66,104.07 108.82,161.36 30.43,57.07 55.08,116.78 73.48,177.9 17.44,61.45 28.73,123.83 34.62,186.12 0.82,15.6 1.64,31.15 2.42,46.69 0.33,7.78 0.9,15.5 1,23.26l-0.13 23.14c-0.08,15.35 -0.04,30.76 -1.18,46.09 -1.1,15.32 -1.22,30.65 -3.11,45.91 -10.45,122.04 -44.01,240.27 -95.38,347.05 -51.07,107.2 -122.14,201.23 -201.74,281.76 -40.27,39.93 -83.02,76.3 -127.14,109.74 -44.15,33.36 -90.42,62.62 -137.03,89.88 -93.92,53.3 -190.91,95.56 -288.44,127.71 -97.44,32.47 -195.01,56.22 -291.11,73.05 -95.85,16.5 -190.26,27.83 -282.61,34.15 -23.11,1.18 -45.97,3.33 -68.84,3.76 -22.82,0.64 -45.51,1.29 -68.02,1.92 -22.53,-0.12 -44.9,-0.17 -67.12,-0.28 -22.23,-0.08 -44.26,-1.43 -66.17,-2.11 -87.51,-4.02 -172.29,-12.39 -253.78,-24.86 -81.41,-12.92 -159.54,-29.51 -234.13,-48.7 -74.58,-19.4 -145.36,-42.26 -212.78,-66.01 -67.15,-24.45 -130.85,-50.23 -190.87,-77.13 -120.13,-53.67 -225.77,-110.99 -318.73,-165.58 -185.65,-109.85 -320.68,-208.81 -411.68,-276.15 -45.25,-34.06 -79.55,-60.29 -102.31,-78.27 -22.9,-17.87 -34.58,-27.01 -34.58,-27.02z"/>
  <path fill="#6D8A91" d="M18382.56 802.91c0,0 -11.22,1.72 -32.51,5 -10.61,1.71 -23.8,3.36 -39.27,6.08 -15.41,2.85 -33.18,6.18 -53.18,9.86 -79.76,15.59 -193.7,44.4 -328.45,94.7 -134.91,49.96 -289.5,123.5 -455.36,216.66 -166.08,93.11 -343.49,205.7 -532.75,322.69 -94.7,58.41 -188.09,114.82 -280.15,166.94 -45.97,26.14 -91.63,51.19 -136.82,74.95 -44.15,23.49 -87.42,46.58 -129.68,69.05 -167.82,91.52 -318.76,178.9 -449.01,246.43 -16.21,8.49 -32.04,16.82 -47.51,24.93 -15.64,7.75 -30.87,15.33 -45.72,22.68 -29.65,14.46 -57.66,28.19 -83.92,40.98 -53.48,23.68 -99.07,44.58 -137.07,60.05 -76.74,29.56 -119.07,45.11 -119.07,45.11 0,0 39.05,-23.36 109.57,-64.01 34.94,-21.01 76.77,-48.3 125.81,-78.56 24.12,-16.06 49.87,-33.15 77.13,-51.23 13.65,-9.03 27.69,-18.32 42.08,-27.83 14.3,-9.82 28.94,-19.9 43.95,-30.19 60.3,-41.35 126.13,-86.49 196.54,-134.82 35.55,-24.2 72.24,-49.22 110.43,-74.66 38.51,-25.15 77.91,-51.33 119.03,-77.34 41.34,-25.44 84.49,-52.09 127.5,-77.84 42.95,-25.45 86.56,-51.91 130.92,-79.2 88.92,-55.2 180.84,-112.21 274.97,-170.62 189.26,-117 374.67,-224.63 551.21,-308.91 176.45,-84.43 343.77,-144.82 487.95,-179.94 144.23,-35.49 263.75,-47.95 345.92,-51.05 20.52,-0.48 38.75,-0.9 54.61,-1.29 15.81,-0.2 29.19,0.43 39.98,0.57 21.52,0.52 32.87,0.79 32.87,0.78z"/>
  <path fill="#6D8A91" d="M18047.65 332.68c0,0 -11.25,1.72 -32.51,5 -10.6,1.71 -23.8,3.36 -39.26,6.08 -15.42,2.85 -33.22,6.18 -53.19,9.86 -79.77,15.57 -193.7,44.36 -328.45,94.7 -134.92,49.97 -289.53,123.49 -455.4,216.66 -166.03,93.09 -343.45,205.7 -532.71,322.69 -94.7,58.4 -188.09,114.82 -280.15,166.94 -45.97,26.13 -91.63,51.19 -136.86,74.95 -44.11,23.5 -87.38,46.51 -129.64,69.05 -167.82,91.52 -318.76,178.87 -449.01,246.43 -16.21,8.49 -32.04,16.82 -47.51,24.9 -15.64,7.78 -30.9,15.35 -45.72,22.71 -29.65,14.46 -57.7,28.15 -83.96,40.98 -53.44,23.68 -99.06,44.58 -137.07,60.05 -76.69,29.58 -119.03,45.11 -119.03,45.11 0,0 39.05,-23.36 109.57,-64.01 34.9,-21.01 76.77,-48.3 125.81,-78.6 24.12,-16.04 49.87,-33.11 77.13,-51.22 13.65,-9.01 27.69,-18.3 42.09,-27.8 14.29,-9.82 28.93,-19.9 43.94,-30.19 60.27,-41.35 126.1,-86.49 196.55,-134.82 35.54,-24.18 72.23,-49.26 110.42,-74.66 38.47,-25.23 77.91,-51.33 119,-77.35 41.37,-25.44 84.48,-52.12 127.53,-77.84 42.95,-25.44 86.56,-51.9 130.92,-79.2 88.93,-55.2 180.84,-112.24 274.97,-170.61 189.27,-117.04 374.64,-224.63 551.21,-308.91 176.44,-84.43 343.77,-144.86 487.95,-179.94 144.19,-35.49 263.75,-47.95 345.92,-51.06 20.52,-0.48 38.75,-0.92 54.62,-1.29 15.79,-0.19 29.18,0.44 39.97,0.58 21.52,0.5 32.87,0.78 32.87,0.78z"/>
  <path fill="#6D8A91" d="M32428.7 1390.64c0,0 68.75,-255.56 558.35,-2.25 0,0 -456.52,262.21 -558.35,2.25zm713.45 -1.74c0.12,22.5 -18.04,40.76 -40.51,40.87 -22.51,0.1 -40.8,-18.09 -40.87,-40.56 -0.1,-22.48 18.04,-40.76 40.51,-40.86 22.53,-0.09 40.8,18.08 40.87,40.55zm245.32 -4.77c0,0 -156.33,-848.93 -1223.36,4.91 0,0 1005.94,862.52 1223.36,-4.91z"/>
  <path fill="#6D8A91" d="M32085.15 1505.52c-62.08,0.24 -112.66,-49.86 -112.9,-111.95l0.01 0c-0.22,-62.1 49.89,-112.64 111.98,-112.89l0.01 0c62.1,-0.22 112.64,49.9 112.88,112l0.01 -0.01c0.24,62.08 -49.91,112.61 -112,112.86l0.01 -0.01z"/>
  <path fill="#6D8A91" d="M31221.39 1508.97c-62.05,0.26 -112.62,-49.85 -112.87,-111.94l0.02 -0.01c-0.26,-62.08 49.85,-112.63 111.94,-112.88l0.01 -0.01c62.13,-0.24 112.63,49.92 112.88,112.01l0.01 -0.02c0.26,62.1 -49.88,112.62 -112,112.87l0.01 -0.02z"/>
  <path fill="#6D8A91" d="M31652.74 1692.78c0,0 384.7,-297.89 381.31,-299.42 3.36,-1.62 -383.67,-296.4 -383.67,-296.4 -44.79,97.38 -383.57,299.04 -382.89,299.44 -5.5,3.2 339.7,199.34 385.25,296.38z"/>
  <path fill="#6D8A91" d="M21084.75 1391.2c318.84,-164.98 363.63,1.48 363.63,1.48 -66.33,169.28 -363.63,-1.47 -363.63,-1.48zm-74.41 -26.05c14.61,0.04 26.47,11.98 26.4,26.62 -0.06,14.61 -11.97,26.44 -26.65,26.41 -14.6,-0.08 -26.44,-12.01 -26.36,-26.62 0.05,-14.65 11.96,-26.47 26.61,-26.41zm610.31 26.48c-694.86,-556.05 -796.68,-3.18 -796.68,-3.18 141.59,564.85 796.67,3.18 796.68,3.18z"/>
  <path fill="#6D8A91" d="M21672.09 1467.52c40.43,0.16 73.34,-32.47 73.48,-72.91l0.01 -0.01c0.18,-40.42 -32.49,-73.37 -72.92,-73.51l0 -0.02c-40.43,-0.17 -73.35,32.5 -73.52,72.93l0.01 0c-0.14,40.42 32.5,73.38 72.93,73.52l0.01 0z"/>
  <polygon fill="#6D8A91" points="31220.94,1436.36 21745.58,1436.36 21745.58,1356.8 31220.94,1356.8 "/>
  <path fill="#6D8A91" d="M400.43 1349.34c489.6,-253.33 558.36,2.26 558.36,2.26 -101.84,259.95 -558.36,-2.26 -558.36,-2.26zm-114.28 -40.05c22.51,0.1 40.65,18.41 40.55,40.87 -0.07,22.47 -18.36,40.66 -40.87,40.56 -22.47,-0.12 -40.62,-18.37 -40.55,-40.87 0.11,-22.49 18.4,-40.62 40.87,-40.56zm937.21 40.7c-1067.03,-853.85 -1223.36,-4.89 -1223.36,-4.89 217.42,867.39 1223.36,4.89 1223.36,4.89z"/>
  <path fill="#6D8A91" d="M1302.34 1466.47c62.1,0.24 112.64,-49.86 112.89,-111.95l0 0c0.25,-62.1 -49.9,-112.64 -112,-112.89l0.01 0c-62.1,-0.22 -112.65,49.9 -112.89,112l0 -0.01c-0.25,62.08 49.9,112.61 111.99,112.86l0 -0.01z"/>
  <path fill="#6D8A91" d="M2166.07 1469.93c62.13,0.26 112.64,-49.85 112.88,-111.94l0.01 -0.01c0.24,-62.08 -49.87,-112.63 -111.97,-112.88l0.01 -0.01c-62.13,-0.24 -112.65,49.92 -112.89,112.01l0 -0.02c-0.25,62.1 49.86,112.62 111.96,112.87l0 -0.02z"/>
  <path fill="#6D8A91" d="M1734.75 1653.73c0,0 -384.71,-297.89 -381.32,-299.42 -3.36,-1.62 383.67,-296.4 383.67,-296.4 44.8,97.38 383.57,299.04 382.89,299.44 5.5,3.2 -339.7,199.34 -385.24,296.38z"/>
  <path fill="#6D8A91" d="M11939.1 1353.62c0,0 44.79,-166.43 363.63,-1.46 0,-0.01 -297.29,170.76 -363.63,1.46zm464.66 -1.1c0.07,14.6 -11.76,26.54 -26.41,26.62 -14.63,0.02 -26.54,-11.8 -26.61,-26.41 -0.07,-14.64 11.79,-26.57 26.4,-26.61 14.65,-0.07 26.58,11.76 26.62,26.4zm159.72 -3.12c0,0 -101.79,-552.84 -796.64,3.19 0,-0.01 655.1,561.69 796.64,-3.19z"/>
  <path fill="#6D8A91" d="M11715.4 1428.47c-40.44,0.16 -73.35,-32.47 -73.49,-72.91l0 -0.01c-0.18,-40.42 32.48,-73.37 72.91,-73.51l0 -0.02c40.4,-0.17 73.35,32.5 73.49,72.93l0 0c0.18,40.42 -32.48,73.38 -72.91,73.52l0 0z"/>
  <polygon fill="#6D8A91" points="2166.54,1397.31 11641.91,1397.31 11641.91,1317.76 2166.54,1317.76 "/>
 </g>
</svg>
